Coordinates
version=1
nRows=26
nColumns=30
inDegrees=yes

Units are S.I. units (second, meters, Newtons, ...)
Angles are in degrees.

endheader
time	floatyaw	floatroll	floatpitch	floatx	floaty	floatz	pro_sup_l	deviation_l	flexion_l	cmc_flexion_l	cmc_abduction_l	mp_flexion_l	ip_flexion_l	2mcp_flexion_l	2mcp_abduction_l	2pm_flexion_l	2md_flexion_l	3mcp_flexion_l	3mcp_abduction_l	3pm_flexion_l	3md_flexion_l	4mcp_flexion_l	4mcp_abduction_l	4pm_flexion_l	4md_flexion_l	5mcp_flexion_l	5mcp_abduction_l	5pm_flexion_l	5md_flexion_l
-1.495000	-0.883807	-4.225655	94.239928	-0.007692	-0.268667	0.000269	89.728243	-0.881781	-2.368108	26.102262	3.369652	-18.423422	-32.938068	19.598892	5.568900	32.796763	20.630496	9.059831	4.006173	35.654221	21.633152	-0.782309	-3.162765	52.608138	33.198072	-20.071868	-9.608886	60.103616	49.233048
-1.485000	-0.883807	-4.225655	94.239928	-0.007702	-0.268673	0.000267	89.732058	-0.882321	-2.379974	26.094132	3.374431	-18.438195	-32.919293	19.630295	5.571311	32.754880	20.621773	9.070438	4.011985	35.647798	21.637705	-0.731009	-3.165855	52.566374	33.164246	-20.084566	-9.610726	60.146382	49.182992
-1.475000	-0.883807	-4.225655	94.239928	-0.007700	-0.268668	0.000239	89.729342	-0.878291	-2.387594	26.074706	3.396175	-18.439761	-32.892291	19.660094	5.570482	32.719492	20.619245	9.078082	4.024879	35.649840	21.651991	-0.686774	-3.172627	52.543665	33.143273	-20.096233	-9.608874	60.202877	49.135374
-1.465000	-0.883807	-4.225655	94.239928	-0.007687	-0.268659	0.000196	89.722374	-0.870513	-2.391950	26.047412	3.432155	-18.426844	-32.866334	19.681563	5.567947	32.701182	20.618088	9.077757	4.043150	35.668712	21.672174	-0.659596	-3.183937	52.548382	33.135213	-20.106287	-9.608559	60.265997	49.093576
-1.455000	-0.883807	-4.225655	94.239928	-0.007668	-0.268653	0.000151	89.714321	-0.861154	-2.395983	26.017832	3.476131	-18.402108	-32.848565	19.693518	5.566394	32.701357	20.613346	9.070793	4.064462	35.704645	21.692513	-0.650007	-3.199857	52.574140	33.137183	-20.110914	-9.613808	60.323567	49.059720
-1.445000	-0.883807	-4.225655	94.239928	-0.007649	-0.268655	0.000115	89.708729	-0.852341	-2.402640	25.991748	3.519400	-18.371036	-32.841518	19.697912	5.568172	32.714620	20.603989	9.062060	4.086943	35.751426	21.709358	-0.652020	-3.219100	52.606568	33.146825	-20.105205	-9.626034	60.364501	49.033635
-1.435000	-0.883807	-4.225655	94.239928	-0.007633	-0.268666	0.000093	89.708621	-0.844979	-2.412811	25.972963	3.551909	-18.339688	-32.842177	19.695689	5.573823	32.733947	20.594338	9.055301	4.109445	35.800292	21.723323	-0.659573	-3.238940	52.633636	33.164511	-20.087304	-9.644233	60.383480	49.014529
-1.425000	-0.883807	-4.225655	94.239928	-0.007623	-0.268683	0.000082	89.714835	-0.838796	-2.424312	25.961534	3.565076	-18.312739	-32.842389	19.684423	5.581714	32.754391	20.592279	9.050243	4.130887	35.843019	21.738330	-0.671548	-3.255785	52.651990	33.192567	-20.061614	-9.666135	60.381303	49.003546
-1.415000	-0.883807	-4.225655	94.239928	-0.007618	-0.268701	0.000080	89.724386	-0.833561	-2.432654	25.953583	3.556297	-18.293016	-32.831162	19.659689	5.589104	32.773390	20.605743	9.043395	4.149473	35.873082	21.758562	-0.691942	-3.266317	52.665827	33.232004	-20.038281	-9.689280	60.361776	49.003891
-1.405000	-0.883807	-4.225655	94.239928	-0.007616	-0.268717	0.000081	89.730616	-0.830294	-2.433259	25.943493	3.532002	-18.282370	-32.799404	19.618911	5.593835	32.789081	20.639547	9.031340	4.162693	35.885892	21.785683	-0.725809	-3.268771	52.680979	33.279296	-20.028595	-9.711283	60.328571	49.017230
-1.395000	-0.883807	-4.225655	94.239928	-0.007618	-0.268727	0.000088	89.726252	-0.831131	-2.423880	25.928000	3.505344	-18.282515	-32.746138	19.564487	5.595444	32.799289	20.693679	9.013580	4.168279	35.879540	21.817993	-0.774641	-3.263722	52.699754	33.325995	-20.038949	-9.729388	60.284764	49.039161
-1.385000	-0.883807	-4.225655	94.239928	-0.007625	-0.268732	0.000102	89.708252	-0.837720	-2.405945	25.910044	3.488480	-18.294647	-32.682842	19.503872	5.595085	32.802437	20.762961	8.993037	4.165430	35.856103	21.851447	-0.834376	-3.253865	52.720068	33.361977	-20.067149	-9.740173	60.234819	49.058684
-1.375000	-0.883807	-4.225655	94.239928	-0.007635	-0.268732	0.000124	89.681190	-0.849373	-2.384264	25.899511	3.484619	-18.318012	-32.631610	19.447007	5.594639	32.799167	20.837703	8.974605	4.155313	35.822092	21.881224	-0.896459	-3.242747	52.738148	33.380428	-20.103300	-9.740297	60.186588	49.063959
-1.365000	-0.883807	-4.225655	94.239928	-0.007647	-0.268730	0.000151	89.656166	-0.862578	-2.365244	25.909333	3.485976	-18.348763	-32.615964	19.403215	5.595744	32.792636	20.905278	8.963289	4.140411	35.786813	21.902704	-0.950525	-3.233044	52.751676	33.381295	-20.134637	-9.728228	60.150773	49.050981
-1.355000	-0.883807	-4.225655	94.239928	-0.007659	-0.268729	0.000175	89.645174	-0.872451	-2.354446	25.948631	3.479364	-18.380565	-32.648790	19.379275	5.599139	32.786814	20.952780	8.962856	4.123202	35.759053	21.911780	-0.987334	-3.225472	52.761024	33.371103	-20.151414	-9.705811	60.137288	49.028374
-1.345000	-0.883807	-4.225655	94.239928	-0.007666	-0.268729	0.000190	89.654334	-0.875191	-2.354614	26.017047	3.455558	-18.407151	-32.724879	19.378903	5.604419	32.784167	20.970688	8.975085	4.105189	35.744020	21.905412	-1.001269	-3.219046	52.768506	33.359683	-20.150597	-9.678396	60.150588	49.014021
-1.335000	-0.883807	-4.225655	94.239928	-0.007664	-0.268731	0.000191	89.680460	-0.869824	-2.365164	26.103865	3.416094	-18.425330	-32.822923	19.402757	5.610219	32.784679	20.956625	8.999341	4.086970	35.742465	21.883152	-0.991958	-3.212509	52.777117	33.356097	-20.135815	-9.653164	60.187427	49.025304
-1.325000	-0.883807	-4.225655	94.239928	-0.007653	-0.268733	0.000175	89.713178	-0.858183	-2.383199	26.192398	3.372986	-18.436109	-32.915782	19.448159	5.614817	32.786820	20.917389	9.032339	4.069054	35.752296	21.849083	-0.964587	-3.205807	52.790005	33.365630	-20.114567	-9.636516	60.239110	49.069117
-1.315000	-0.883807	-4.225655	94.239928	-0.007633	-0.268738	0.000146	89.740957	-0.843419	-2.405212	26.267051	3.341401	-18.442880	-32.983229	19.508515	5.616933	32.789373	20.867473	9.068242	4.052577	35.771108	21.812251	-0.928653	-3.200425	52.810581	33.388326	-20.095065	-9.631817	60.297035	49.137351
-1.305000	-0.883807	-4.225655	94.239928	-0.007605	-0.268746	0.000111	89.757001	-0.828362	-2.428391	26.319348	3.330088	-18.448043	-33.020474	19.573374	5.616288	32.792536	20.823856	9.099422	4.039270	35.797550	21.784141	-0.895251	-3.198273	52.842242	33.418908	-20.084343	-9.638460	60.357732	49.209658
-1.295000	-0.883807	-4.225655	94.239928	-0.007575	-0.268762	0.000076	89.761541	-0.814735	-2.450939	26.349934	3.336073	-18.450743	-33.038272	19.630097	5.613554	32.797636	20.799290	9.118048	4.030799	35.830829	21.773989	-0.873561	-3.199979	52.887110	33.448238	-20.087460	-9.652449	60.423855	49.261322
-1.285000	-0.883807	-4.225655	94.239928	-0.007549	-0.268787	0.000048	89.760026	-0.803211	-2.471596	26.365729	3.347020	-18.447247	-33.054712	19.667178	5.609726	32.805998	20.797687	9.118262	4.028035	35.869432	21.784800	-0.867778	-3.203918	52.944393	33.466485	-20.106697	-9.668161	60.500617	49.272436
-1.275000	-0.883807	-4.225655	94.239928	-0.007531	-0.268820	0.000030	89.759532	-0.793554	-2.489073	26.374223	3.348790	-18.433399	-33.083182	19.677901	5.605348	32.818026	20.814089	9.098368	4.030718	35.910433	21.812546	-0.875774	-3.206759	53.009552	33.467138	-20.140112	-9.680520	60.590396	49.235158
-1.265000	-0.883807	-4.225655	94.239928	-0.007523	-0.268853	0.000019	89.766032	-0.784492	-2.501959	26.378570	3.332392	-18.407297	-33.123333	19.662398	5.600138	32.833102	20.838570	9.062106	4.037584	35.949802	21.848519	-0.890308	-3.205255	53.074896	33.449812	-20.180391	-9.686571	60.689086	49.156959
-1.255000	-0.883807	-4.225655	94.239928	-0.007524	-0.268877	0.000012	89.783116	-0.773898	-2.509028	26.376172	3.296368	-18.370635	-33.160385	19.626896	5.593221	32.850028	20.861009	9.018025	4.046717	35.983158	21.882796	-0.902613	-3.198127	53.131258	33.419984	-20.215940	-9.685609	60.785917	49.058483
-1.245000	-0.883807	-4.225655	94.239928	-0.007530	-0.268882	0.000002	89.811092	-0.759957	-2.509441	26.360785	3.245245	-18.328120	-33.173188	19.580701	5.583727	32.867229	20.874089	8.976719	4.055875	36.006181	21.906956	-0.906774	-3.186832	53.169802	33.385653	-20.235053	-9.677940	60.866063	48.965814
